PathFileType	4	(X/Y/Z)	../Python\running\Running07\task.trc
DataRate	CameraRate	NumFrames	NumMarkers	Units	OrigDataRate	OrigDataStartFrame	OrigNumFrames
200.000000	200.000000	4	30	mm	200.000000	22	177
Frame#	Time	C7			RBAK			CLAV			STRN			RASI			LASI			PE01			RTH1			RTH2			RTH3			RTB2			RHEE			RD5M			RTOE			LTH2			LTH3			LTB2			LTB3			LHEE			LTOE			LD5M			LPSI			RPSI			RTB1			RTB3			T10			PE03			PE02			LTH1			LTB1			
		X1	Y1	Z1	X2	Y2	Z2	X3	Y3	Z3	X4	Y4	Z4	X5	Y5	Z5	X6	Y6	Z6	X7	Y7	Z7	X8	Y8	Z8	X9	Y9	Z9	X10	Y10	Z10	X11	Y11	Z11	X12	Y12	Z12	X13	Y13	Z13	X14	Y14	Z14	X15	Y15	Z15	X16	Y16	Z16	X17	Y17	Z17	X18	Y18	Z18	X19	Y19	Z19	X20	Y20	Z20	X21	Y21	Z21	X22	Y22	Z22	X23	Y23	Z23	X24	Y24	Z24	X25	Y25	Z25	X26	Y26	Z26	X27	Y27	Z27	X28	Y28	Z28	X29	Y29	Z29	X30	Y30	Z30	

23	0.11	-1190.883422851563	1360.845336914063	142.6459503173829	-1199.327026367188	1285.1005859375	277.0599365234376	-1081.73388671875	1266.91650390625	111.8235015869141	-1041.52978515625	1084.938720703125	123.7990188598633	-1104.355712890625	865.9624633789067	301.9043579101564	-1088.492309570313	883.2451782226567	85.31544494628909	-1259.715576171875	988.2106933593755	196.9727783203126	-1283.680053710938	605.1746215820315	315.6205444335939	-1294.768188476563	527.8535766601565	298.0430297851564	-1249.734619140625	568.3506469726565	308.5656127929689	-1503.141235351563	369.7150268554689	265.7796325683595	-1682.473144531251	287.8159790039064	157.5772094726563	-1684.154296875001	150.9401550292969	246.2188720703126	-1658.876220703126	117.655632019043	203.1987304687501	-1076.8408203125	567.2283325195315	56.19091415405276	-1024.467163085938	622.481384277344	35.13823318481447	-959.6444702148442	237.9215393066407	68.13320922851565	-931.8817749023442	278.5511169433595	69.88053894042972	-941.1452636718755	74.77949523925784	128.3556823730469	-757.9569091796877	72.84061431884768	137.2629394531251	-788.5064086914067	46.69055938720705	91.90881347656253	-1278.392456054688	953.3261718750005	153.6546478271485	-1274.338623046875	960.979858398438	239.8741302490236	-1441.64990234375	358.6897277832032	266.9309387207032	-1508.872314453125	320.3873596191407	252.7371978759767	-1252.409423828125	1081.26025390625	196.8375854492189	-1289.446655273438	938.8142089843755	162.8619689941407	-1297.24267578125	936.0285644531255	212.8242492675782	-1075.0830078125	624.9400024414065	34.55507659912111	-981.8793334960942	313.6764526367189	57.85406494140628	
24	0.115	-1174.509033203125	1359.27294921875	141.3144073486329	-1183.238647460938	1284.292114257813	276.0057678222657	-1065.427001953125	1265.426391601563	111.2566986083985	-1025.402709960938	1083.532104492188	124.2094650268555	-1087.427612304688	865.702758789063	301.9957275390626	-1072.155639648438	881.887329101563	85.10536193847659	-1243.764404296875	986.1831665039067	196.0778045654298	-1262.883422851563	602.0782470703127	316.9121398925782	-1273.1298828125	524.6333007812502	299.5704956054689	-1228.485961914063	565.737487792969	309.4384155273439	-1483.040893554688	370.864227294922	265.8013000488282	-1664.469360351563	292.4803466796876	155.9532928466797	-1667.591918945313	157.1986389160157	246.9568786621095	-1642.204101562501	122.9917678833008	204.7783203125001	-1059.088256835938	565.7625732421877	56.36500549316409	-1006.712829589844	621.2998657226565	35.20082855224611	-947.8432617187505	235.9473724365236	68.55652618408206	-919.2722167968755	275.9765930175782	70.21856689453128	-932.5413208007817	72.45901489257815	128.9171447753907	-749.5654907226565	67.04853057861331	137.779281616211	-780.5679321289067	41.24424743652345	92.52092742919925	-1262.317504882813	950.8854370117192	153.0074615478516	-1258.38427734375	959.1594238281255	239.1245574951173	-1421.963989257813	358.3200073242189	267.9458923339845	-1489.964233398438	321.7040405273439	252.8939514160157	-1236.443969726563	1079.952270507813	196.0935516357423	-1273.3330078125	936.2729492187505	162.5240478515626	-1280.958251953125	933.890991210938	212.5466156005861	-1057.527587890625	623.4046020507815	34.45003128051759	-968.5298461914067	312.0746459960939	58.01565933227542	
25	0.12	-1158.14208984375	1357.471313476563	139.9717102050782	-1167.236450195313	1283.260864257813	274.9059143066407	-1049.089477539063	1263.679809570313	110.7538146972657	-1009.291015625	1081.737915039063	124.6490707397462	-1070.53564453125	865.1964721679692	302.0743713378907	-1055.860473632813	880.223999023438	84.812126159668	-1227.920654296875	983.7175292968755	195.1782531738282	-1241.958862304688	598.7680664062502	318.3240661621095	-1251.27685546875	521.2087402343752	301.2549438476564	-1207.091918945313	562.9585571289065	310.498748779297	-1462.510620117188	371.8362121582032	265.9195251464845	-1645.877929687501	296.8377990722657	154.5018920898438	-1650.249389648438	163.1419372558594	247.7187347412111	-1624.735473632813	128.0674438476563	206.3766174316407	-1041.1044921875	564.3466796875002	56.40529251098636	-988.7678222656255	620.3167114257815	35.56417083740236	-936.8309936523442	233.6314392089845	69.06211090087893	-907.3300170898442	272.9633789062501	70.5483322143555	-925.062377929688	69.66188049316409	129.3401336669922	-742.2498779296877	60.97805023193362	138.4340057373047	-773.641723632813	35.65950012207033	92.98421478271487	-1246.323852539063	948.044555664063	152.344711303711	-1242.587280273438	956.9154663085942	238.3374481201173	-1401.9208984375	357.8274230957032	269.1521606445314	-1470.634521484375	322.8759765625001	253.257781982422	-1220.465942382813	1078.36572265625	195.3695373535157	-1257.339111328125	933.326538085938	162.1543884277344	-1264.792358398438	931.3162231445317	212.2351989746095	-1039.755615234375	621.984313964844	34.47179794311525	-955.7489624023442	310.148406982422	58.1966361999512	
26	0.125	-1141.7822265625	1355.446044921875	138.6213378906251	-1151.321899414063	1281.99951171875	273.766571044922	-1032.718017578125	1261.670532226563	110.3130493164063	-993.1865844726567	1079.556518554688	125.1138229370118	-1053.685546875	864.4235229492192	302.1289978027345	-1039.609497070313	878.271118164063	84.42971038818362	-1212.193969726563	980.8364257812505	194.3067474365236	-1220.934448242188	595.243835449219	319.8322753906251	-1229.226684570313	517.5728759765627	303.0780029296876	-1185.574340820313	560.009948730469	311.7303466796876	-1441.546752929688	372.6083068847657	266.1476135253907	-1626.701782226563	300.8723144531251	153.2199249267579	-1632.131103515626	168.7534637451172	248.5116729736329	-1606.484130859376	132.8584594726563	208.0065460205079	-1022.987731933594	562.9644775390627	56.26049804687503	-970.732299804688	619.4963989257815	36.18162918090822	-926.547485351563	231.0216522216798	69.64024353027347	-896.020874023438	269.5641174316407	70.88669586181643	-918.6264648437505	66.44065093994143	129.6316986083985	-735.9089965820315	54.91577911376956	139.2452850341797	-767.6022949218752	30.21539115905763	93.28189849853518	-1230.411987304688	944.8348999023442	151.6914520263672	-1226.934936523438	954.248413085938	237.5386962890626	-1381.505493164063	357.187713623047	270.531707763672	-1450.8779296875	323.8790588378907	253.8256988525392	-1204.471435546875	1076.504516601563	194.6777191162111	-1241.460327148438	930.003295898438	161.7678985595704	-1248.740234375	928.3142089843755	211.9029541015626	-1021.85400390625	620.6654052734377	34.58875274658205	-943.4963378906255	307.9229125976564	58.38935470581058	
